<mxfile host="app.diagrams.net" agent="Mozilla/5.0 (Macintosh; Intel Mac OS X 10_15_7) AppleWebKit/537.36 (KHTML, like Gecko) Chrome/131.0.0.0 Safari/537.36" version="26.0.2">
  <diagram name="Page-1" id="oW699OXRqu2QNU9kcvBW">
    <mxGraphModel dx="1026" dy="657" grid="1" gridSize="10" guides="1" tooltips="1" connect="1" arrows="1" fold="1" page="1" pageScale="1" pageWidth="1400" pageHeight="1700" math="0" shadow="0">
      <root>
        <mxCell id="0" />
        <mxCell id="1" parent="0" />
        <mxCell id="ZMgVWywVdw22Xnb9yl-t-20" style="edgeStyle=orthogonalEdgeStyle;rounded=0;orthogonalLoop=1;jettySize=auto;html=1;exitX=0.5;exitY=1;exitDx=0;exitDy=0;entryX=0.5;entryY=0;entryDx=0;entryDy=0;" edge="1" parent="1" source="ZMgVWywVdw22Xnb9yl-t-3" target="ZMgVWywVdw22Xnb9yl-t-4">
          <mxGeometry relative="1" as="geometry" />
        </mxCell>
        <mxCell id="ZMgVWywVdw22Xnb9yl-t-3" value="" style="ellipse;whiteSpace=wrap;html=1;aspect=fixed;strokeColor=none;fillColor=light-dark(#FFFFFF,#000000);" vertex="1" parent="1">
          <mxGeometry x="560" y="40" width="50" height="50" as="geometry" />
        </mxCell>
        <mxCell id="ZMgVWywVdw22Xnb9yl-t-21" style="edgeStyle=orthogonalEdgeStyle;rounded=0;orthogonalLoop=1;jettySize=auto;html=1;exitX=0.5;exitY=1;exitDx=0;exitDy=0;entryX=0.5;entryY=0;entryDx=0;entryDy=0;" edge="1" parent="1" source="ZMgVWywVdw22Xnb9yl-t-4" target="ZMgVWywVdw22Xnb9yl-t-5">
          <mxGeometry relative="1" as="geometry" />
        </mxCell>
        <mxCell id="ZMgVWywVdw22Xnb9yl-t-4" value="User selects a Match to participate in" style="html=1;dashed=0;whiteSpace=wrap;fillColor=none;" vertex="1" parent="1">
          <mxGeometry x="445" y="130" width="280" height="50" as="geometry" />
        </mxCell>
        <mxCell id="ZMgVWywVdw22Xnb9yl-t-22" style="edgeStyle=orthogonalEdgeStyle;rounded=0;orthogonalLoop=1;jettySize=auto;html=1;exitX=0.5;exitY=1;exitDx=0;exitDy=0;entryX=0.5;entryY=0;entryDx=0;entryDy=0;" edge="1" parent="1" source="ZMgVWywVdw22Xnb9yl-t-5" target="ZMgVWywVdw22Xnb9yl-t-6">
          <mxGeometry relative="1" as="geometry" />
        </mxCell>
        <mxCell id="ZMgVWywVdw22Xnb9yl-t-5" value="User creates one or more virtual team for the Match" style="html=1;dashed=0;whiteSpace=wrap;fillColor=none;" vertex="1" parent="1">
          <mxGeometry x="445" y="250" width="280" height="50" as="geometry" />
        </mxCell>
        <mxCell id="ZMgVWywVdw22Xnb9yl-t-23" style="edgeStyle=orthogonalEdgeStyle;rounded=0;orthogonalLoop=1;jettySize=auto;html=1;entryX=0.5;entryY=0;entryDx=0;entryDy=0;" edge="1" parent="1" source="ZMgVWywVdw22Xnb9yl-t-6" target="ZMgVWywVdw22Xnb9yl-t-7">
          <mxGeometry relative="1" as="geometry" />
        </mxCell>
        <mxCell id="ZMgVWywVdw22Xnb9yl-t-6" value="User selects a Contest related to the Match to participare" style="html=1;dashed=0;whiteSpace=wrap;fillColor=none;" vertex="1" parent="1">
          <mxGeometry x="445" y="370" width="280" height="50" as="geometry" />
        </mxCell>
        <mxCell id="ZMgVWywVdw22Xnb9yl-t-24" style="edgeStyle=orthogonalEdgeStyle;rounded=0;orthogonalLoop=1;jettySize=auto;html=1;entryX=0.5;entryY=0;entryDx=0;entryDy=0;" edge="1" parent="1" source="ZMgVWywVdw22Xnb9yl-t-7" target="ZMgVWywVdw22Xnb9yl-t-12">
          <mxGeometry relative="1" as="geometry" />
        </mxCell>
        <mxCell id="ZMgVWywVdw22Xnb9yl-t-7" value="User submit a Virtual Team and request participation" style="html=1;dashed=0;whiteSpace=wrap;fillColor=none;" vertex="1" parent="1">
          <mxGeometry x="445" y="490" width="280" height="50" as="geometry" />
        </mxCell>
        <mxCell id="ZMgVWywVdw22Xnb9yl-t-25" style="edgeStyle=orthogonalEdgeStyle;rounded=0;orthogonalLoop=1;jettySize=auto;html=1;exitX=1;exitY=0.5;exitDx=0;exitDy=0;entryX=0.5;entryY=0;entryDx=0;entryDy=0;" edge="1" parent="1" source="ZMgVWywVdw22Xnb9yl-t-12" target="ZMgVWywVdw22Xnb9yl-t-15">
          <mxGeometry relative="1" as="geometry" />
        </mxCell>
        <mxCell id="ZMgVWywVdw22Xnb9yl-t-12" value="Check if User Account has Sufficient Funds" style="shape=hexagon;perimeter=hexagonPerimeter2;whiteSpace=wrap;html=1;fixedSize=1;fillColor=none;" vertex="1" parent="1">
          <mxGeometry x="480" y="610" width="210" height="80" as="geometry" />
        </mxCell>
        <mxCell id="ZMgVWywVdw22Xnb9yl-t-27" style="edgeStyle=orthogonalEdgeStyle;rounded=0;orthogonalLoop=1;jettySize=auto;html=1;" edge="1" parent="1" source="ZMgVWywVdw22Xnb9yl-t-13" target="ZMgVWywVdw22Xnb9yl-t-14">
          <mxGeometry relative="1" as="geometry" />
        </mxCell>
        <mxCell id="ZMgVWywVdw22Xnb9yl-t-13" value="Funds are deducted from the User Account" style="html=1;dashed=0;whiteSpace=wrap;fillColor=none;" vertex="1" parent="1">
          <mxGeometry x="300" y="770" width="280" height="50" as="geometry" />
        </mxCell>
        <mxCell id="ZMgVWywVdw22Xnb9yl-t-30" style="edgeStyle=orthogonalEdgeStyle;rounded=0;orthogonalLoop=1;jettySize=auto;html=1;exitX=0.5;exitY=1;exitDx=0;exitDy=0;entryX=0;entryY=0.5;entryDx=0;entryDy=0;" edge="1" parent="1" source="ZMgVWywVdw22Xnb9yl-t-14" target="ZMgVWywVdw22Xnb9yl-t-18">
          <mxGeometry relative="1" as="geometry" />
        </mxCell>
        <mxCell id="ZMgVWywVdw22Xnb9yl-t-14" value="User is notified of successful registration" style="html=1;dashed=0;whiteSpace=wrap;fillColor=none;" vertex="1" parent="1">
          <mxGeometry x="300" y="890" width="280" height="50" as="geometry" />
        </mxCell>
        <mxCell id="ZMgVWywVdw22Xnb9yl-t-28" style="edgeStyle=orthogonalEdgeStyle;rounded=0;orthogonalLoop=1;jettySize=auto;html=1;entryX=0.5;entryY=0;entryDx=0;entryDy=0;" edge="1" parent="1" source="ZMgVWywVdw22Xnb9yl-t-15" target="ZMgVWywVdw22Xnb9yl-t-16">
          <mxGeometry relative="1" as="geometry" />
        </mxCell>
        <mxCell id="ZMgVWywVdw22Xnb9yl-t-15" value="Show error message to the User" style="html=1;dashed=0;whiteSpace=wrap;fillColor=none;" vertex="1" parent="1">
          <mxGeometry x="630" y="770" width="280" height="50" as="geometry" />
        </mxCell>
        <mxCell id="ZMgVWywVdw22Xnb9yl-t-29" style="edgeStyle=orthogonalEdgeStyle;rounded=0;orthogonalLoop=1;jettySize=auto;html=1;entryX=1;entryY=0.5;entryDx=0;entryDy=0;" edge="1" parent="1" source="ZMgVWywVdw22Xnb9yl-t-16" target="ZMgVWywVdw22Xnb9yl-t-18">
          <mxGeometry relative="1" as="geometry" />
        </mxCell>
        <mxCell id="ZMgVWywVdw22Xnb9yl-t-16" value="Participation failed" style="html=1;dashed=0;whiteSpace=wrap;fillColor=none;" vertex="1" parent="1">
          <mxGeometry x="630" y="890" width="280" height="50" as="geometry" />
        </mxCell>
        <mxCell id="ZMgVWywVdw22Xnb9yl-t-19" value="" style="group" vertex="1" connectable="0" parent="1">
          <mxGeometry x="585" y="1015" width="50" height="50" as="geometry" />
        </mxCell>
        <mxCell id="ZMgVWywVdw22Xnb9yl-t-17" value="" style="ellipse;whiteSpace=wrap;html=1;aspect=fixed;strokeColor=none;fillColor=light-dark(#FFFFFF,#000000);" vertex="1" parent="ZMgVWywVdw22Xnb9yl-t-19">
          <mxGeometry x="5" y="5" width="40" height="40" as="geometry" />
        </mxCell>
        <mxCell id="ZMgVWywVdw22Xnb9yl-t-18" value="" style="ellipse;whiteSpace=wrap;html=1;aspect=fixed;strokeColor=default;fillColor=none;" vertex="1" parent="ZMgVWywVdw22Xnb9yl-t-19">
          <mxGeometry width="50" height="50" as="geometry" />
        </mxCell>
        <mxCell id="ZMgVWywVdw22Xnb9yl-t-26" style="edgeStyle=orthogonalEdgeStyle;rounded=0;orthogonalLoop=1;jettySize=auto;html=1;entryX=0.5;entryY=0;entryDx=0;entryDy=0;" edge="1" parent="1" source="ZMgVWywVdw22Xnb9yl-t-12" target="ZMgVWywVdw22Xnb9yl-t-13">
          <mxGeometry relative="1" as="geometry">
            <Array as="points">
              <mxPoint x="440" y="650" />
            </Array>
          </mxGeometry>
        </mxCell>
      </root>
    </mxGraphModel>
  </diagram>
</mxfile>
